<?xml version="1.0" encoding="UTF-8"?>
<svg version="1.1" xmlns="http://www.w3.org/2000/svg" width="462" height="442">
<path d="M0 0 C152.46 0 304.92 0 462 0 C462 145.86 462 291.72 462 442 C309.54 442 157.08 442 0 442 C0 296.14 0 150.28 0 0 Z " fill="#FEFDFD" transform="translate(0,0)"/>
<path d="M0 0 C0.66 0 1.32 0 2 0 C2 84.81 2 169.62 2 257 C-0.78677012 255.60661494 -3.04943739 254.36369658 -5.546875 252.6015625 C-6.2186377 252.128396 -6.89040039 251.65522949 -7.58251953 251.16772461 C-8.65542236 250.40407593 -8.65542236 250.40407593 -9.75 249.625 C-10.50007324 249.09334229 -11.25014648 248.56168457 -12.02294922 248.01391602 C-18.46370954 243.42678193 -24.79297099 238.69998157 -31.1015625 233.93359375 C-34.87448194 231.08559358 -38.68196435 228.28709586 -42.5 225.5 C-47.69576152 221.7046746 -52.85845352 217.8684431 -58 214 C-67.3482999 206.96860584 -76.78299535 200.05800723 -86.25 193.1875 C-90.45918551 190.13254718 -94.64647338 187.04888078 -98.82983398 183.95874023 C-107.49647229 177.55741067 -116.20641527 171.22580061 -125 165 C-124.39409165 161.7486967 -123.31884707 159.80652395 -121.26171875 157.234375 C-120.69493408 156.51733398 -120.12814941 155.80029297 -119.54418945 155.06152344 C-118.93148193 154.2987207 -118.31877441 153.53591797 -117.6875 152.75 C-116.40243158 151.12596007 -115.11859941 149.50094125 -113.8359375 147.875 C-113.18979492 147.05773437 -112.54365234 146.24046875 -111.87792969 145.3984375 C-109.13194149 141.89134077 -106.46858591 138.32538161 -103.8125 134.75 C-99.62332725 129.12774386 -95.35246543 123.58024101 -91.00537109 118.0793457 C-86.69735945 112.62786869 -82.46073295 107.12340368 -78.23388672 101.60888672 C-76.15907413 98.90350188 -74.07927147 96.20195834 -72 93.5 C-71.16664307 92.41668482 -70.33330973 91.33335149 -69.5 90.25 C-64.5 83.75 -64.5 83.75 -63.25073242 82.12597656 C-62.41492624 81.03941221 -61.57915165 79.95282355 -60.7434082 78.86621094 C-58.69816364 76.20711452 -56.65230009 73.5485006 -54.60546875 70.890625 C-51.05393096 66.27764215 -47.50429718 61.6634001 -43.97265625 57.03515625 C-37.12397802 48.0602304 -30.22938399 39.12302165 -23.2890625 30.21875 C-22.47973267 29.18028931 -22.47973267 29.18028931 -21.65405273 28.12084961 C-20.52690919 26.67561036 -19.39877601 25.23114251 -18.26977539 23.78735352 C-15.32670597 20.01706946 -12.41056777 16.23042551 -9.54296875 12.40234375 C-8.98802734 11.66435547 -8.43308594 10.92636719 -7.86132812 10.16601562 C-6.72151165 8.64847701 -5.58626703 7.12749617 -4.45507812 5.60351562 C-3.63233398 4.51393555 -3.63233398 4.51393555 -2.79296875 3.40234375 C-2.3033667 2.74741943 -1.81376465 2.09249512 -1.30932617 1.41772461 C-0.87724854 0.94987549 -0.4451709 0.48202637 0 0 Z " fill="#FE0001" transform="translate(225,30)"/>
<path d="M0 0 C0.66 0 1.32 0 2 0 C3.26171875 1.35424805 3.26171875 1.35424805 4.6875 3.26171875 C5.21706299 3.96288818 5.74662598 4.66405762 6.29223633 5.38647461 C6.85579834 6.14581299 7.41936035 6.90515137 8 7.6875 C9.17019018 9.24507929 10.34076768 10.80236765 11.51171875 12.359375 C12.38836182 13.53016602 12.38836182 13.53016602 13.28271484 14.72460938 C14.86230981 16.81756148 16.46378774 18.88998355 18.08203125 20.953125 C18.54544922 21.54520752 19.00886719 22.13729004 19.48632812 22.74731445 C20.7457203 24.35239031 22.0075579 25.95554652 23.26953125 27.55859375 C25 30 25 30 25 32 C25.66 32 26.32 32 27 32 C28.453125 33.7734375 28.453125 33.7734375 30.25 36.375 C33.93163703 41.56790575 37.76399513 46.61252893 41.6875 51.625 C46.40648129 57.66390065 51.10059166 63.71983782 55.75 69.8125 C56.28753906 70.51681152 56.82507813 71.22112305 57.37890625 71.94677734 C58.42598198 73.31881868 59.47302088 74.69088812 60.52001953 76.06298828 C63.54338094 80.01999082 66.58272853 83.96467076 69.62109375 87.91015625 C71.19811979 89.95847742 72.77365859 92.00794455 74.34765625 94.05859375 C79.95764443 101.36526129 85.60312739 108.64363252 91.26660156 115.90893555 C91.83733398 116.64152588 92.40806641 117.37411621 92.99609375 118.12890625 C93.50325928 118.77931885 94.0104248 119.42973145 94.53295898 120.09985352 C95.01708252 120.72690186 95.50120605 121.3539502 96 122 C96.55695557 122.69859131 97.11391113 123.39718262 97.68774414 124.11694336 C99 126 99 126 99 128 C99.66 128 100.32 128 101 128 C102.59375 129.94921875 102.59375 129.94921875 104.5 132.6875 C107.60691068 137.06875154 110.77721899 141.37592801 114.0625 145.625 C114.48257324 146.17099854 114.90264648 146.71699707 115.33544922 147.27954102 C117.2633074 149.77960311 119.21015661 152.26072905 121.19140625 154.71875 C121.82949219 155.5128125 122.46757812 156.306875 123.125 157.125 C123.68445313 157.80820313 124.24390625 158.49140625 124.8203125 159.1953125 C126 161 126 161 126 164 C124.09692778 165.58020189 122.23555521 166.94176531 120.1875 168.3125 C118.89207978 169.20797495 117.59787267 170.10520659 116.3046875 171.00390625 C115.60698242 171.48617676 114.90927734 171.96844727 114.19042969 172.46533203 C110.34723935 175.15796405 106.58323768 177.95726345 102.8125 180.75 C101.18491962 181.95185513 99.55731517 183.15367766 97.9296875 184.35546875 C96.2863973 185.57022993 94.64316789 186.78507337 93 188 C89.81343114 190.3554302 86.62602232 192.70971479 83.4375 195.0625 C82.65592529 195.63935547 81.87435059 196.21621094 81.0690918 196.81054688 C75.61499633 200.82882 70.12668362 204.79723218 64.625 208.75 C58.4722921 213.17378249 52.43435218 217.70704015 46.44921875 222.35546875 C40.71680574 226.77926687 34.85525176 231.03205067 29.015625 235.3125 C25.57451674 237.8357989 22.1495795 240.37925651 18.734375 242.9375 C17.87859863 243.5759082 17.02282227 244.21431641 16.14111328 244.87207031 C14.50085704 246.09629417 12.86365189 247.32461992 11.22998047 248.55761719 C10.48635254 249.11094727 9.74272461 249.66427734 8.9765625 250.234375 C8.32768066 250.72131836 7.67879883 251.20826172 7.01025391 251.70996094 C5 253 5 253 0 255 C0 170.85 0 86.7 0 0 Z " fill="#FD0000" transform="translate(243,31)"/>
<path d="M0 0 C0 37.62 0 75.24 0 114 C-4.06172455 112.98456886 -7.16990488 111.3743562 -10.75 109.3125 C-11.4419043 108.91877197 -12.13380859 108.52504395 -12.84667969 108.11938477 C-20.03126063 104.01580567 -27.16716672 99.82741143 -34.30761719 95.64770508 C-42.17614471 91.04714486 -50.08071977 86.51230304 -58 82 C-75.30862688 72.13263426 -92.55920996 62.16882428 -109.58398438 51.81738281 C-113.64732326 49.35763009 -117.70827227 47.04988273 -122 45 C-122 44.34 -122 43.68 -122 43 C-117.97969373 41.60264551 -113.95871924 40.20722497 -109.9375 38.8125 C-108.74624512 38.3990332 -107.55499023 37.98556641 -106.32763672 37.55957031 C-100.10874636 35.40567358 -93.88278573 33.28787577 -87.625 31.25 C-82.21041825 29.46767457 -77.0045411 27.3706763 -71.76953125 25.12109375 C-68.37626719 23.74751577 -64.94023748 22.73943037 -61.421875 21.7421875 C-58.06586648 20.71373328 -54.86759073 19.36881868 -51.625 18.03125 C-48.82065809 16.92954425 -45.99200794 15.98830465 -43.125 15.0625 C-39.15999384 13.76759925 -35.33000953 12.33818016 -31.5 10.6875 C-25.0041711 7.90728523 -18.3562466 5.61828325 -11.67773438 3.32299805 C-10.84306641 3.03593994 -10.00839844 2.74888184 -9.1484375 2.453125 C-8.02187744 2.06882324 -8.02187744 2.06882324 -6.87255859 1.67675781 C-2.23304473 0 -2.23304473 0 0 0 Z " fill="#797070" transform="translate(226,304)"/>
<path d="M0 0 C3.1424763 1.35370156 4.84816723 2.71934656 6.8828125 5.45703125 C7.40593018 6.15175537 7.92904785 6.84647949 8.46801758 7.56225586 C9.01482178 8.30483643 9.56162598 9.04741699 10.125 9.8125 C11.27694292 11.35186253 12.42929154 12.89092155 13.58203125 14.4296875 C14.1538916 15.19764648 14.72575195 15.96560547 15.31494141 16.75683594 C16.87874333 18.83858211 18.46722873 20.89680709 20.07421875 22.9453125 C20.53876465 23.53852295 21.00331055 24.1317334 21.48193359 24.74291992 C22.74315071 26.34917827 24.00628555 27.9539303 25.26953125 29.55859375 C27 32 27 32 27 34 C27.66 34 28.32 34 29 34 C30.3059082 35.49023438 30.3059082 35.49023438 31.80078125 37.59375 C32.35934814 38.36904053 32.91791504 39.14433105 33.4934082 39.94311523 C34.0937085 40.78688721 34.69400879 41.63065918 35.3125 42.5 C39.9813447 48.95892152 44.74151545 55.28862867 49.8125 61.4375 C65 79.88176264 65 79.88176264 65 82 C8.9 82 -47.2 82 -105 82 C-97.73236509 74.73236509 -89.6674961 68.7242573 -81.4375 62.59375 C-77.41479684 59.57672263 -73.46080352 56.47254048 -69.5 53.375 C-62.13804684 47.62161324 -54.6875226 41.99673873 -47.19921875 36.40917969 C-41.67112341 32.27608493 -36.21279946 28.06777297 -30.80371094 23.78051758 C-26.30158729 20.21711473 -21.7147036 16.77675903 -17.109375 13.34765625 C-11.33611677 8.98870123 -5.67225866 4.48913962 0 0 Z " fill="#020202" transform="translate(377,205)"/>
<path d="M0 0 C5.00364987 2.70793218 9.31717561 5.68616407 13.6875 9.3125 C19.72525299 14.23369279 25.88054101 18.96915208 32.125 23.625 C33.84377485 24.90751878 35.56252539 26.19007014 37.28125 27.47265625 C38.09335938 28.07867676 38.90546875 28.68469727 39.7421875 29.30908203 C46.25577532 34.18722966 52.6785261 39.18392979 59.08984375 44.1953125 C67.08493159 50.44009084 75.12027505 56.61863596 83.25 62.6875 C89.28994809 67.19950068 95.30874694 71.7334927 101.25 76.375 C101.84071289 76.83350342 102.43142578 77.29200684 103.04003906 77.7644043 C104.37980075 78.81827114 105.69334612 79.90535288 107 81 C107 81.33 107 81.66 107 82 C50.9 82 -5.2 82 -63 82 C-60.6695656 78.50434841 -58.4665929 75.20788883 -55.8984375 71.93359375 C-55.33125 71.20785156 -54.7640625 70.48210937 -54.1796875 69.734375 C-53.58414063 68.97640625 -52.98859375 68.2184375 -52.375 67.4375 C-51.11169979 65.82183299 -49.84868019 64.20594653 -48.5859375 62.58984375 C-47.97073242 61.80335449 -47.35552734 61.01686523 -46.72167969 60.20654297 C-44.46606832 57.31570129 -42.23133278 54.4096283 -40 51.5 C-35.49316406 45.6285738 -30.94576688 39.78936235 -26.39599609 33.95117188 C-22.27539039 28.65692638 -18.19125591 23.33606707 -14.125 18 C-9.49947161 11.93073343 -4.81514463 5.92073675 0 0 Z " fill="#020202" transform="translate(90,205)"/>
<path d="M0 0 C4.7537937 1.18844843 9.35082041 2.70901664 14 4.25 C14.88300781 4.53746094 15.76601563 4.82492187 16.67578125 5.12109375 C22.55967098 7.07103695 28.25004536 9.32248473 33.95556641 11.74169922 C38.97030815 13.8143519 44.07486297 15.62300171 49.1875 17.4375 C50.27973877 17.82800537 51.37197754 18.21851074 52.49731445 18.62084961 C59.21901287 21.02113797 65.94911583 23.39742728 72.68286133 25.76367188 C88.5154909 31.33975176 104.25505738 37.18200735 120 43 C120 43.99 120 44.98 120 46 C119.40276123 46.33620361 118.80552246 46.67240723 118.19018555 47.01879883 C102.04481397 56.11263036 85.94738924 65.27620231 70.01269531 74.73510742 C60.4973672 80.38325685 50.92113155 85.90332436 41.2746582 91.32446289 C35.46036951 94.59608875 29.67993163 97.91636009 23.9375 101.3125 C18.65557319 104.43363857 13.37339872 107.55331334 8.0625 110.625 C6.37833984 111.60339844 6.37833984 111.60339844 4.66015625 112.6015625 C2 114 2 114 0 114 C0 76.38 0 38.76 0 0 Z " fill="#787070" transform="translate(243,304)"/>
<path d="M0 0 C49.83 0 99.66 0 151 0 C148.41960332 2.58039668 146.63117205 3.92333892 143.51953125 5.64453125 C142.61396484 6.14992432 141.70839844 6.65531738 140.77539062 7.17602539 C139.79763672 7.71606201 138.81988281 8.25609863 137.8125 8.8125 C127.17500382 14.75154242 116.63702551 20.84608039 106.125 27.00390625 C104.79082031 27.77565186 104.79082031 27.77565186 103.4296875 28.56298828 C101.93405042 29.44756624 100.45509191 30.36207006 99.0078125 31.32373047 C94.5426411 34.2223709 92.12090964 34.00770333 87 33 C84.89924032 32.36777734 82.8160904 31.67430865 80.75390625 30.92578125 C79.5947168 30.50844727 78.43552734 30.09111328 77.24121094 29.66113281 C76.02723633 29.21608398 74.81326172 28.77103516 73.5625 28.3125 C72.29607476 27.85335453 71.02947195 27.39469853 69.76269531 26.93652344 C60.81573109 23.69349197 51.89461111 20.38381944 43 17 C34.62965974 13.81845805 26.26824757 10.71769308 17.75390625 7.9375 C13.43093935 6.46585169 9.22005712 4.74068214 5 3 C3.3339787 2.33172217 1.66747671 1.66463798 0 1 C0 0.67 0 0.34 0 0 Z " fill="#7C7574" transform="translate(291,303)"/>
<path d="M0 0 C49.83 0 99.66 0 151 0 C148.21865295 2.78134705 144.8993634 3.57907483 141.25 4.8125 C139.70433674 5.34609255 138.15876517 5.87995075 136.61328125 6.4140625 C135.45046631 6.81286621 135.45046631 6.81286621 134.26416016 7.21972656 C130.97979557 8.3515822 127.7086492 9.5179667 124.4375 10.6875 C122.85775391 11.25017578 122.85775391 11.25017578 121.24609375 11.82421875 C115.70060965 13.83287184 110.18826329 15.92877731 104.671875 18.015625 C92.49334016 22.61569732 80.29410828 27.13984453 67.96386719 31.31982422 C66.21457822 31.92568189 64.48441955 32.58614618 62.7578125 33.25390625 C56.78066802 34.87095242 52.47303089 31.8490113 47.375 28.9375 C46.61445312 28.50920898 45.85390625 28.08091797 45.0703125 27.63964844 C34.30808915 21.5351326 23.68429591 15.18126979 13.06640625 8.83007812 C11.03668047 7.61870675 9.00286157 6.41416513 6.96484375 5.21679688 C6.04832031 4.67603516 5.13179687 4.13527344 4.1875 3.578125 C3.37667969 3.1027832 2.56585937 2.62744141 1.73046875 2.13769531 C1.15941406 1.76225586 0.58835937 1.38681641 0 1 C0 0.67 0 0.34 0 0 Z " fill="#7B7575" transform="translate(27,303)"/>
<path d="M0 0 C0.66 0 1.32 0 2 0 C2 84.81 2 169.62 2 257 C0.68 256.34 -0.64 255.68 -2 255 C-1.34 254.67 -0.68 254.34 0 254 C-0.33 171.83 -0.66 89.66 -1 5 C-1.66 4.67 -2.32 4.34 -3 4 C-1.625 2 -1.625 2 0 0 Z " fill="#EF3838" transform="translate(225,30)"/>
<path d="M0 0 C0.99 0 1.98 0 3 0 C3 85.14 3 170.28 3 258 C2.01 258 1.02 258 0 258 C0 172.86 0 87.72 0 0 Z " fill="#F3B5B6" transform="translate(241,29)"/>
<path d="M0 0 C0.66 0.33 1.32 0.66 2 1 C1.38125 1.7425 0.7625 2.485 0.125 3.25 C-2.02497667 5.7729141 -2.02497667 5.7729141 -2.875 8.1875 C-4.59417288 10.95727853 -6.95698036 11.13056582 -10 12 C-10.99 12.66 -11.98 13.32 -13 14 C-15.1875 13.625 -15.1875 13.625 -17 13 C-14.91689914 11.39553069 -12.83352773 9.79141482 -10.75 8.1875 C-10.16347656 7.73568359 -9.57695312 7.28386719 -8.97265625 6.81835938 C-5.99542152 4.5268922 -3.01280445 2.24468847 0 0 Z " fill="#F8EAE4" transform="translate(295,248)"/>
<path d="M0 0 C-2.875 3.875 -2.875 3.875 -4 5 C-4 6.65 -4 8.3 -4 10 C-7.3 8.35 -10.6 6.7 -14 5 C-14 4.34 -14 3.68 -14 3 C-12.04486839 2.303447 -10.08577524 1.61800435 -8.125 0.9375 C-7.03445312 0.55464844 -5.94390625 0.17179687 -4.8203125 -0.22265625 C-2 -1 -2 -1 0 0 Z " fill="#838181" transform="translate(118,344)"/>
<path d="M0 0 C0.66 0 1.32 0 2 0 C0.43870938 4.21548466 -2.58691713 6.22687017 -6 9 C-6.99 10.485 -6.99 10.485 -8 12 C-8.66 11.34 -9.32 10.68 -10 10 C-10.66 10.66 -11.32 11.32 -12 12 C-12.99 11.67 -13.98 11.34 -15 11 C-13.50146484 9.93458984 -13.50146484 9.93458984 -11.97265625 8.84765625 C-10.66923542 7.91932055 -9.36585193 6.99093243 -8.0625 6.0625 C-7.40314453 5.59392578 -6.74378906 5.12535156 -6.06445312 4.64257812 C-2.89795165 2.48544482 -2.89795165 2.48544482 0 0 Z " fill="#FBDCD9" transform="translate(257,276)"/>
<path d="M0 0 C0.66 0.33 1.32 0.66 2 1 C-2.93654267 7.70459519 -2.93654267 7.70459519 -7.375 8.9375 C-8.24125 8.958125 -9.1075 8.97875 -10 9 C-6.83047153 5.73991357 -3.60062011 2.77762123 0 0 Z " fill="#FCCFCC" transform="translate(307,239)"/>
<path d="M0 0 C0 3 0 3 -1.625 5.625 C-4.43693229 8.43693229 -6.10240081 8.7342546 -10 9 C-6.83047153 5.73991357 -3.60062011 2.77762123 0 0 Z " fill="#FBD7D4" transform="translate(288,253)"/>
<path d="M0 0 C0.33 0.66 0.66 1.32 1 2 C-1.57784846 4.64752004 -3.91648098 6.94432065 -7 9 C-8.32 8.67 -9.64 8.34 -11 8 C-7.37 5.36 -3.74 2.72 0 0 Z " fill="#FDCFCB" transform="translate(332,221)"/>
<path d="M0 0 C1.125 1.75 1.125 1.75 2 4 C1.125 6.25 1.125 6.25 0 8 C-1.32 8 -2.64 8 -4 8 C-4.33 8.99 -4.66 9.98 -5 11 C-6.32 10.67 -7.64 10.34 -9 10 C-7.87926138 9.16094435 -6.75325453 8.32892169 -5.625 7.5 C-4.99851562 7.0359375 -4.37203125 6.571875 -3.7265625 6.09375 C-2 5 -2 5 0 5 C-0.2784375 4.0409375 -0.2784375 4.0409375 -0.5625 3.0625 C-0.706875 2.381875 -0.85125 1.70125 -1 1 C-0.67 0.67 -0.34 0.34 0 0 Z " fill="#FCD8D4" transform="translate(369,190)"/>
<path d="M0 0 C0.99 0.33 1.98 0.66 3 1 C0.36 4.3 -2.28 7.6 -5 11 C-6 8 -6 8 -4.6875 5.3125 C-4.130625 4.549375 -3.57375 3.78625 -3 3 C-2.34 3 -1.68 3 -1 3 C-0.67 2.01 -0.34 1.02 0 0 Z " fill="#FDE3DC" transform="translate(213,42)"/>
<path d="M0 0 C0.33 1.32 0.66 2.64 1 4 C-2.98188718 5.71767682 -6.96479403 7.41037341 -11 9 C-7.56638098 5.36440339 -4.2026393 2.63886654 0 0 Z " fill="#FCCFCB" transform="translate(320,230)"/>
<path d="M0 0 C0.66 0.33 1.32 0.66 2 1 C-2.18461538 6.78461538 -2.18461538 6.78461538 -6.3125 7.875 C-7.6428125 7.936875 -7.6428125 7.936875 -9 8 C-6.14723863 5.06799526 -3.34920216 2.35684596 0 0 Z " fill="#FDDAD7" transform="translate(276,262)"/>
<path d="M0 0 C0.66 0 1.32 0 2 0 C2.33 0.99 2.66 1.98 3 3 C1.59554165 5.2636564 -0.1967913 7.0208685 -2 9 C-2.66 8.67 -3.32 8.34 -4 8 C-2.25 2.25 -2.25 2.25 0 0 Z " fill="#FBE9EA" transform="translate(163,105)"/>
<path d="M0 0 C0.33 0.66 0.66 1.32 1 2 C1.99 2.33 2.98 2.66 4 3 C2.35 5.31 0.7 7.62 -1 10 C-1.33 8.68 -1.66 7.36 -2 6 C-1.34 6 -0.68 6 0 6 C-0.2784375 4.7934375 -0.2784375 4.7934375 -0.5625 3.5625 C-0.706875 2.716875 -0.85125 1.87125 -1 1 C-0.67 0.67 -0.34 0.34 0 0 Z " fill="#F8E9E6" transform="translate(124,154)"/>
<path d="M0 0 C0.66 0.33 1.32 0.66 2 1 C1.34 1.66 0.68 2.32 0 3 C-0.6425235 5.06874034 -0.6425235 5.06874034 -1 7 C-2.65 6.67 -4.3 6.34 -6 6 C-4 4 -2 2 0 0 Z " fill="#F9D9D4" transform="translate(345,211)"/>
<path d="M0 0 C1.9375 0.75 1.9375 0.75 4 2 C4.75 4.125 4.75 4.125 5 6 C5.66 6 6.32 6 7 6 C6.67 6.99 6.34 7.98 6 9 C4.99406757 7.8803014 3.9954151 6.7540588 3 5.625 C2.443125 4.99851563 1.88625 4.37203125 1.3125 3.7265625 C0 2 0 2 0 0 Z " fill="#FDDEDB" transform="translate(346,162)"/>
<path d="M0 0 C1.32 0.33 2.64 0.66 4 1 C1.525 4.465 1.525 4.465 -1 8 C-1.33 6.68 -1.66 5.36 -2 4 C-1.01 3.67 -0.02 3.34 1 3 C0.67 2.01 0.34 1.02 0 0 Z " fill="#FBE6E3" transform="translate(202,54)"/>
<path d="M0 0 C-2.3125 1.5625 -2.3125 1.5625 -5 3 C-5.99 2.67 -6.98 2.34 -8 2 C-8 1.01 -8 0.02 -8 -1 C-3.375 -2.25 -3.375 -2.25 0 0 Z " fill="#807C7B" transform="translate(273,402)"/>
<path d="M0 0 C0.66 0 1.32 0 2 0 C2 0.66 2 1.32 2 2 C3.32 1.67 4.64 1.34 6 1 C6 3.31 6 5.62 6 8 C1.125 3.375 1.125 3.375 0 0 Z " fill="#FBDEDB" transform="translate(285,83)"/>
<path d="M0 0 C1.65 0 3.3 0 5 0 C5.66 2.64 6.32 5.28 7 8 C4.35247996 5.42215154 2.05567935 3.08351902 0 0 Z " fill="#FBE0D8" transform="translate(249,37)"/>
<path d="M0 0 C2.64 1.65 5.28 3.3 8 5 C6.02 5.99 6.02 5.99 4 7 C4 6.01 4 5.02 4 4 C2.68 3.34 1.36 2.68 0 2 C0 1.34 0 0.68 0 0 Z " fill="#FAE0DA" transform="translate(182,255)"/>
<path d="M0 0 C2.125 0.375 2.125 0.375 4 1 C2.35 2.65 0.7 4.3 -1 6 C-1.625 4.125 -1.625 4.125 -2 2 C-1.34 1.34 -0.68 0.68 0 0 Z " fill="#F8DFE1" transform="translate(103,184)"/>
<path d="M0 0 C0.99 0.33 1.98 0.66 3 1 C0.525 4.465 0.525 4.465 -2 8 C-2.33 6.68 -2.66 5.36 -3 4 C-2.34 4 -1.68 4 -1 4 C-0.67 2.68 -0.34 1.36 0 0 Z " fill="#FCEADF" transform="translate(188,74)"/>
</svg>
